<?xml version="1.0" encoding="UTF-8" standalone="no"?>
<!-- Created with Inkscape (http://www.inkscape.org/) -->

<svg
   id="svg5"
   version="1.1"
   viewBox="0 0 52.916665 31.750001"
   height="120"
   width="200"
   sodipodi:docname="Button Sponge Grey.svg"
   inkscape:version="1.1.2 (b8e25be833, 2022-02-05)"
   xmlns:inkscape="http://www.inkscape.org/namespaces/inkscape"
   xmlns:sodipodi="http://sodipodi.sourceforge.net/DTD/sodipodi-0.dtd"
   xmlns="http://www.w3.org/2000/svg"
   xmlns:svg="http://www.w3.org/2000/svg">
  <sodipodi:namedview
     id="namedview7"
     pagecolor="#ffffff"
     bordercolor="#666666"
     borderopacity="1.0"
     inkscape:pageshadow="2"
     inkscape:pageopacity="0.0"
     inkscape:pagecheckerboard="0"
     inkscape:document-units="mm"
     showgrid="true"
     units="px"
     width="120px"
     inkscape:zoom="1.4218013"
     inkscape:cx="163.87662"
     inkscape:cy="108.66497"
     inkscape:window-width="1920"
     inkscape:window-height="991"
     inkscape:window-x="-9"
     inkscape:window-y="-9"
     inkscape:window-maximized="1"
     inkscape:current-layer="layer1">
    <inkscape:grid
       type="xygrid"
       id="grid846" />
  </sodipodi:namedview>
  <defs
     id="defs2">
    <pattern
       inkscape:collect="always"
       patternUnits="userSpaceOnUse"
       width="10"
       height="10"
       patternTransform="translate(0,0) scale(10,10)"
       id="Polkadots-med"
       inkscape:stockid="Polka dots, medium"
       inkscape:isstock="true">
      <circle
         style="fill:#949494;stroke:none"
         cx="2.567"
         cy="0.810"
         r="0.15"
         id="circle2523" />
      <circle
         style="fill:#949494;stroke:none"
         cx="3.048"
         cy="2.33"
         r="0.15"
         id="circle2525" />
      <circle
         style="fill:#949494;stroke:none"
         cx="4.418"
         cy="2.415"
         r="0.15"
         id="circle2527" />
      <circle
         style="fill:#949494;stroke:none"
         cx="1.844"
         cy="3.029"
         r="0.15"
         id="circle2529" />
      <circle
         style="fill:#949494;stroke:none"
         cx="6.08"
         cy="1.363"
         r="0.15"
         id="circle2531" />
      <circle
         style="fill:#949494;stroke:none"
         cx="5.819"
         cy="4.413"
         r="0.15"
         id="circle2533" />
      <circle
         style="fill:#949494;stroke:none"
         cx="4.305"
         cy="4.048"
         r="0.15"
         id="circle2535" />
      <circle
         style="fill:#949494;stroke:none"
         cx="5.541"
         cy="3.045"
         r="0.15"
         id="circle2537" />
      <circle
         style="fill:#949494;stroke:none"
         cx="4.785"
         cy="5.527"
         r="0.15"
         id="circle2539" />
      <circle
         style="fill:#949494;stroke:none"
         cx="2.667"
         cy="5.184"
         r="0.15"
         id="circle2541" />
      <circle
         style="fill:#949494;stroke:none"
         cx="7.965"
         cy="1.448"
         r="0.15"
         id="circle2543" />
      <circle
         style="fill:#949494;stroke:none"
         cx="7.047"
         cy="5.049"
         r="0.15"
         id="circle2545" />
      <circle
         style="fill:#949494;stroke:none"
         cx="4.340"
         cy="0.895"
         r="0.15"
         id="circle2547" />
      <circle
         style="fill:#949494;stroke:none"
         cx="7.125"
         cy="0.340"
         r="0.15"
         id="circle2549" />
      <circle
         style="fill:#949494;stroke:none"
         cx="9.550"
         cy="1.049"
         r="0.15"
         id="circle2551" />
      <circle
         style="fill:#949494;stroke:none"
         cx="7.006"
         cy="2.689"
         r="0.15"
         id="circle2553" />
      <circle
         style="fill:#949494;stroke:none"
         cx="8.909"
         cy="2.689"
         r="0.15"
         id="circle2555" />
      <circle
         style="fill:#949494;stroke:none"
         cx="9.315"
         cy="4.407"
         r="0.15"
         id="circle2557" />
      <circle
         style="fill:#949494;stroke:none"
         cx="7.820"
         cy="3.870"
         r="0.15"
         id="circle2559" />
      <circle
         style="fill:#949494;stroke:none"
         cx="8.270"
         cy="5.948"
         r="0.15"
         id="circle2561" />
      <circle
         style="fill:#949494;stroke:none"
         cx="7.973"
         cy="7.428"
         r="0.15"
         id="circle2563" />
      <circle
         style="fill:#949494;stroke:none"
         cx="9.342"
         cy="8.072"
         r="0.15"
         id="circle2565" />
      <circle
         style="fill:#949494;stroke:none"
         cx="8.206"
         cy="9.315"
         r="0.15"
         id="circle2567" />
      <circle
         style="fill:#949494;stroke:none"
         cx="9.682"
         cy="9.475"
         r="0.15"
         id="circle2569" />
      <circle
         style="fill:#949494;stroke:none"
         cx="9.688"
         cy="6.186"
         r="0.15"
         id="circle2571" />
      <circle
         style="fill:#949494;stroke:none"
         cx="3.379"
         cy="6.296"
         r="0.15"
         id="circle2573" />
      <circle
         style="fill:#949494;stroke:none"
         cx="2.871"
         cy="8.204"
         r="0.15"
         id="circle2575" />
      <circle
         style="fill:#949494;stroke:none"
         cx="4.59"
         cy="8.719"
         r="0.15"
         id="circle2577" />
      <circle
         style="fill:#949494;stroke:none"
         cx="3.181"
         cy="9.671"
         r="0.15"
         id="circle2579" />
      <circle
         style="fill:#949494;stroke:none"
         cx="5.734"
         cy="7.315"
         r="0.15"
         id="circle2581" />
      <circle
         style="fill:#949494;stroke:none"
         cx="6.707"
         cy="6.513"
         r="0.15"
         id="circle2583" />
      <circle
         style="fill:#949494;stroke:none"
         cx="5.730"
         cy="9.670"
         r="0.15"
         id="circle2585" />
      <circle
         style="fill:#949494;stroke:none"
         cx="6.535"
         cy="8.373"
         r="0.15"
         id="circle2587" />
      <circle
         style="fill:#949494;stroke:none"
         cx="4.37"
         cy="7.154"
         r="0.15"
         id="circle2589" />
      <circle
         style="fill:#949494;stroke:none"
         cx="0.622"
         cy="7.25"
         r="0.15"
         id="circle2591" />
      <circle
         style="fill:#949494;stroke:none"
         cx="0.831"
         cy="5.679"
         r="0.15"
         id="circle2593" />
      <circle
         style="fill:#949494;stroke:none"
         cx="1.257"
         cy="8.519"
         r="0.15"
         id="circle2595" />
      <circle
         style="fill:#949494;stroke:none"
         cx="1.989"
         cy="6.877"
         r="0.15"
         id="circle2597" />
      <circle
         style="fill:#949494;stroke:none"
         cx="0.374"
         cy="3.181"
         r="0.15"
         id="circle2599" />
      <circle
         style="fill:#949494;stroke:none"
         cx="1.166"
         cy="1.664"
         r="0.15"
         id="circle2601" />
      <circle
         style="fill:#949494;stroke:none"
         cx="1.151"
         cy="0.093"
         r="0.15"
         id="circle2603" />
      <circle
         style="fill:#949494;stroke:none"
         cx="1.151"
         cy="10.093"
         r="0.15"
         id="circle2605" />
      <circle
         style="fill:#949494;stroke:none"
         cx="1.302"
         cy="4.451"
         r="0.15"
         id="circle2607" />
      <circle
         style="fill:#949494;stroke:none"
         cx="3.047"
         cy="3.763"
         r="0.15"
         id="circle2609" />
    </pattern>
    <linearGradient
       id="linearGradient3719"
       inkscape:swatch="solid">
      <stop
         style="stop-color:#828812;stop-opacity:1;"
         offset="0"
         id="stop3717" />
    </linearGradient>
  </defs>
  <g
     inkscape:label="Layer 1 copy"
     inkscape:groupmode="layer"
     id="g4019"
     style="display:inline">
    <path
       id="path4017"
       style="fill:#e6e6e6;fill-opacity:1;stroke:#939393;stroke-width:5.66929;stroke-miterlimit:4;stroke-dasharray:none;stroke-opacity:1"
       d="M 9.3847656,0 A 11.340979,11.340979 0 0 1 0,7.59375 V 45.259766 A 12.499999,12.499999 0 0 1 2.5,45 12.499999,12.499999 0 0 1 15,57.5 12.499999,12.499999 0 0 1 2.5,70 12.499999,12.499999 0 0 1 0,69.740234 V 101.99023 A 14.023508,14.023508 0 0 1 0.9765625,101.95312 14.023508,14.023508 0 0 1 15,115.97656 14.023508,14.023508 0 0 1 14.40625,120 h 86.46289 A 15,15 0 0 1 100,115 a 15,15 0 0 1 15,-15 15,15 0 0 1 15,15 15,15 0 0 1 -0.86914,5 h 51.05273 A 17.500001,17.500001 0 0 1 197.5,105 17.500001,17.500001 0 0 1 200,105.18164 V 87.892578 A 24.999999,24.999999 0 0 1 185,65 24.999999,24.999999 0 0 1 200,42.107422 V 14.603516 A 12.499999,12.499999 0 0 1 190,2.5 12.499999,12.499999 0 0 1 190.39648,0 H 142.4375 A 12.499999,12.499999 0 0 1 132.5,5 12.499999,12.499999 0 0 1 122.5625,0 H 49.748047 A 12.499999,12.499999 0 0 1 50,2.5 12.499999,12.499999 0 0 1 37.5,15 12.499999,12.499999 0 0 1 25,2.5 12.499999,12.499999 0 0 1 25.259766,0 Z M 137.5,30 A 12.499999,12.499999 0 0 1 150,42.5 12.499999,12.499999 0 0 1 137.5,55 12.499999,12.499999 0 0 1 125,42.5 12.499999,12.499999 0 0 1 137.5,30 Z M 55,60 A 15,15 0 0 1 70,75 15,15 0 0 1 55,90 15,15 0 0 1 40,75 15,15 0 0 1 55,60 Z"
       transform="scale(0.26458333)" />
  </g>
  <g
     inkscape:label="Layer 1"
     inkscape:groupmode="layer"
     id="layer1">
    <path
       id="rect848"
       style="fill:url(#Polkadots-med);fill-opacity:1;stroke:none;stroke-width:5.66929141;stroke-miterlimit:4;stroke-dasharray:none;stroke-opacity:1"
       d="M 9.3847656,0 A 11.340979,11.340979 0 0 1 0,7.59375 V 45.259766 A 12.499999,12.499999 0 0 1 2.5,45 12.499999,12.499999 0 0 1 15,57.5 12.499999,12.499999 0 0 1 2.5,70 12.499999,12.499999 0 0 1 0,69.740234 V 101.99023 A 14.023508,14.023508 0 0 1 0.9765625,101.95312 14.023508,14.023508 0 0 1 15,115.97656 14.023508,14.023508 0 0 1 14.40625,120 h 86.46289 A 15,15 0 0 1 100,115 a 15,15 0 0 1 15,-15 15,15 0 0 1 15,15 15,15 0 0 1 -0.86914,5 h 51.05273 A 17.500001,17.500001 0 0 1 197.5,105 17.500001,17.500001 0 0 1 200,105.18164 V 87.892578 A 24.999999,24.999999 0 0 1 185,65 24.999999,24.999999 0 0 1 200,42.107422 V 14.603516 A 12.499999,12.499999 0 0 1 190,2.5 12.499999,12.499999 0 0 1 190.39648,0 H 142.4375 A 12.499999,12.499999 0 0 1 132.5,5 12.499999,12.499999 0 0 1 122.5625,0 H 49.748047 A 12.499999,12.499999 0 0 1 50,2.5 12.499999,12.499999 0 0 1 37.5,15 12.499999,12.499999 0 0 1 25,2.5 12.499999,12.499999 0 0 1 25.259766,0 Z M 137.5,30 A 12.499999,12.499999 0 0 1 150,42.5 12.499999,12.499999 0 0 1 137.5,55 12.499999,12.499999 0 0 1 125,42.5 12.499999,12.499999 0 0 1 137.5,30 Z M 55,60 A 15,15 0 0 1 70,75 15,15 0 0 1 55,90 15,15 0 0 1 40,75 15,15 0 0 1 55,60 Z"
       transform="scale(0.26458333)" />
  </g>
</svg>
