<?xml version="1.0" encoding="UTF-8" standalone="no"?>
<svg
   version="1.1"
   id="svg8"
   sodipodi:docname="soundicon.svg"
   width="26.994999"
   height="30.985178"
   inkscape:version="1.1.2 (b8e25be833, 2022-02-05)"
   xmlns:inkscape="http://www.inkscape.org/namespaces/inkscape"
   xmlns:sodipodi="http://sodipodi.sourceforge.net/DTD/sodipodi-0.dtd"
   xmlns="http://www.w3.org/2000/svg"
   xmlns:svg="http://www.w3.org/2000/svg">
  <sodipodi:namedview
     id="namedview10"
     pagecolor="#ffffff"
     bordercolor="#666666"
     borderopacity="1.0"
     inkscape:pageshadow="2"
     inkscape:pageopacity="0.0"
     inkscape:pagecheckerboard="0"
     showgrid="false"
     inkscape:zoom="5.9019846"
     inkscape:cx="43.714109"
     inkscape:cy="31.768975"
     inkscape:window-width="1920"
     inkscape:window-height="991"
     inkscape:window-x="-9"
     inkscape:window-y="-9"
     inkscape:window-maximized="1"
     inkscape:current-layer="svg8" />
  <defs
     id="defs2" />
  <g
     id="g6"
     style="fill:#000000"
     transform="translate(-211.005,-160.99687)">
    <path
       stroke="none"
       fill="#FFFFFF"
       d="m 238,163.9 v 15.1 0.35 c -0.2,1.83333 -0.86667,3.33333 -2,4.5 h -0.1 c -1.2,1.33333 -2.61667,2.06667 -4.25,2.2 h -0.05 c -1.7,0.16667 -3.11667,-0.35 -4.25,-1.55 -1.1,-1.06667 -1.56667,-2.5 -1.4,-4.3 0.16667,-1.6 0.83333,-3 2,-4.2 1.13333,-1.13333 2.36667,-1.8 3.7,-2 H 233 v -5 h -10 v 17 c 0.0667,1.26667 -0.61667,2.53333 -2.05,3.8 l -0.05,0.15 c -1.2,1.16667 -2.58333,1.83333 -4.15,2 h -0.05 c -1.73333,0.16667 -3.15,-0.31667 -4.25,-1.45 -1.13333,-1.1 -1.6,-2.5 -1.4,-4.2 0.13333,-1.66667 0.78333,-3.11667 1.95,-4.35 l 0.1,-0.05 c 1.1,-1.06667 2.3,-1.73333 3.6,-2 h 0.05 L 219,180 v -16 c -0.0667,-2.06667 0.75,-3.06667 2.45,-3 H 235 c 2,0 3,0.96667 3,2.9"
       id="path4"
       style="fill:#000000"
       sodipodi:nodetypes="ccccccccccccccccccccccccccccsc" />
  </g>
</svg>
