<?xml version="1.0" encoding="UTF-8" standalone="no"?>
<!-- Created with Inkscape (http://www.inkscape.org/) -->

<svg
   width="210mm"
   height="297mm"
   viewBox="0 0 210 297"
   version="1.1"
   id="svg6167"
   sodipodi:docname="uplvlbutton.svg"
   inkscape:version="1.1.2 (b8e25be833, 2022-02-05)"
   xmlns:inkscape="http://www.inkscape.org/namespaces/inkscape"
   xmlns:sodipodi="http://sodipodi.sourceforge.net/DTD/sodipodi-0.dtd"
   xmlns="http://www.w3.org/2000/svg"
   xmlns:svg="http://www.w3.org/2000/svg">
  <sodipodi:namedview
     id="namedview6169"
     pagecolor="#ffffff"
     bordercolor="#666666"
     borderopacity="1.0"
     inkscape:pageshadow="2"
     inkscape:pageopacity="0.0"
     inkscape:pagecheckerboard="0"
     inkscape:document-units="mm"
     showgrid="false"
     inkscape:zoom="1.4218013"
     inkscape:cx="436.06654"
     inkscape:cy="175.48162"
     inkscape:window-width="1920"
     inkscape:window-height="991"
     inkscape:window-x="-9"
     inkscape:window-y="-9"
     inkscape:window-maximized="1"
     inkscape:current-layer="layer1" />
  <defs
     id="defs6164" />
  <g
     inkscape:label="Layer 1"
     inkscape:groupmode="layer"
     id="layer1">
    <path
       stroke="none"
       fill="#ffffff"
       d="m 79.299294,5.4201974 c -0.105833,0.09701 -0.233715,0.145521 -0.383646,0.145521 h -7.395104 c -0.149931,0 -0.277813,-0.04851 -0.383646,-0.145521 -0.09701,-0.105833 -0.145521,-0.233715 -0.145521,-0.383645 V 4.5073854 L 75.22471,0.27405245 79.458044,4.5073854 v 0.529167 c 0,0.14993 -0.05292,0.277812 -0.15875,0.383645"
       id="path6249"
       style="fill:#f7ff02;stroke-width:1;stroke:#000000;stroke-opacity:1;stroke-miterlimit:4;stroke-dasharray:none;fill-opacity:1"
       sodipodi:nodetypes="csscscccsc" />
    <path
       stroke="none"
       fill="#ffffff"
       d="m 79.461413,11.374874 v 0.529167 l -4.233337,4.233333 -4.233333,-4.233333 v -0.529167 c 0,-0.14993 0.04851,-0.277812 0.145521,-0.383645 0.105833,-0.09701 0.233715,-0.145521 0.383646,-0.145521 h 7.395103 c 0.149933,0 0.277817,0.04851 0.38365,0.145521 0.105833,0.105834 0.15875,0.233715 0.15875,0.383645"
       id="path6249-9"
       style="fill:#f7ff02;stroke-width:1;stroke:#000000;stroke-opacity:1;stroke-miterlimit:4;stroke-dasharray:none;fill-opacity:1"
       sodipodi:nodetypes="ccccscsscc" />
    <path
       stroke="none"
       fill="#ffffff"
       d="m 90.790944,5.6815895 c -0.105833,0.09701 -0.233715,0.145521 -0.383646,0.145521 h -7.395104 c -0.149931,0 -0.277813,-0.04851 -0.383646,-0.145521 -0.09701,-0.105833 -0.145521,-0.233715 -0.145521,-0.383645 V 4.7687775 L 86.71636,0.53544457 90.949694,4.7687775 v 0.529167 c 0,0.14993 -0.05292,0.277812 -0.15875,0.383645"
       id="path6249-4"
       style="fill:#f7ff02;fill-opacity:1;stroke:#e3ea00;stroke-width:1;stroke-miterlimit:4;stroke-dasharray:none;stroke-opacity:1"
       sodipodi:nodetypes="csscscccsc" />
    <path
       stroke="none"
       fill="#ffffff"
       d="m 90.953063,11.636266 v 0.529167 l -4.233337,4.233333 -4.233333,-4.233333 v -0.529167 c 0,-0.14993 0.04851,-0.277812 0.145521,-0.383645 0.105833,-0.09701 0.233715,-0.145521 0.383646,-0.145521 h 7.395103 c 0.149933,0 0.277817,0.04851 0.38365,0.145521 0.105833,0.105834 0.15875,0.233715 0.15875,0.383645"
       id="path6249-9-0"
       style="fill:#f7ff02;fill-opacity:1;stroke:#e3ea00;stroke-width:1;stroke-miterlimit:4;stroke-dasharray:none;stroke-opacity:1"
       sodipodi:nodetypes="ccccscsscc" />
    <path
       stroke="none"
       fill="#ffffff"
       d="m 66.878349,5.86768 c -0.105833,0.09701 -0.233715,0.145521 -0.383646,0.145521 h -7.395104 c -0.149931,0 -0.277813,-0.04851 -0.383646,-0.145521 C 58.618943,5.761847 58.570432,5.633965 58.570432,5.484035 V 4.954868 L 62.803765,0.72153499 67.037099,4.954868 v 0.529167 c 0,0.14993 -0.05292,0.277812 -0.15875,0.383645"
       id="path6249-4-0"
       style="fill:#c6cc0b;fill-opacity:1;stroke:#000000;stroke-width:1;stroke-miterlimit:4;stroke-dasharray:none;stroke-opacity:1"
       sodipodi:nodetypes="csscscccsc" />
    <path
       stroke="none"
       fill="#ffffff"
       d="m 67.040468,11.822357 v 0.529166 l -4.233337,4.233334 -4.233333,-4.233333 v -0.529167 c 0,-0.14993 0.04851,-0.277812 0.145521,-0.383645 0.105833,-0.09701 0.233715,-0.145521 0.383646,-0.145521 h 7.395103 c 0.149933,0 0.277817,0.04851 0.38365,0.145521 0.105833,0.105834 0.15875,0.233715 0.15875,0.383645"
       id="path6249-9-0-0"
       style="fill:#c6cc0b;fill-opacity:1;stroke:#000000;stroke-width:1;stroke-miterlimit:4;stroke-dasharray:none;stroke-opacity:1"
       sodipodi:nodetypes="ccccscsscc" />
    <path
       stroke="none"
       fill="#ffffff"
       d="m 122.37976,24.383657 c -0.10583,0.09701 -0.23371,0.145521 -0.38365,0.145521 h -7.3951 c -0.14993,0 -0.27781,-0.04851 -0.38365,-0.145521 -0.097,-0.105833 -0.14552,-0.233715 -0.14552,-0.383645 v -0.529167 l 4.23334,-4.233333 4.23333,4.233333 v 0.529167 c 0,0.14993 -0.0529,0.277812 -0.15875,0.383645"
       id="path6249-4-3"
       style="fill:#888879;fill-opacity:1;stroke:#575757;stroke-width:1;stroke-miterlimit:4;stroke-dasharray:none;stroke-opacity:1"
       sodipodi:nodetypes="csscscccsc" />
    <path
       stroke="none"
       fill="#ffffff"
       d="m 101.97891,11.729311 v 0.529167 l -4.233338,4.233333 -4.233333,-4.233333 v -0.529167 c 0,-0.14993 0.04851,-0.277812 0.145521,-0.383645 0.105833,-0.09701 0.233715,-0.145521 0.383646,-0.145521 h 7.395104 c 0.14993,0 0.27782,0.04851 0.38365,0.145521 0.10583,0.105834 0.15875,0.233715 0.15875,0.383645"
       id="path6249-9-0-4"
       style="fill:#888879;fill-opacity:1;stroke:#575757;stroke-width:1;stroke-miterlimit:4;stroke-dasharray:none;stroke-opacity:1"
       sodipodi:nodetypes="ccccscsscc" />
    <path
       stroke="none"
       fill="#ffffff"
       d="m 113.77309,5.5885444 c -0.10584,0.09701 -0.23372,0.145521 -0.38365,0.145521 h -7.3951 c -0.14993,0 -0.27782,-0.04851 -0.38365,-0.145521 -0.097,-0.105833 -0.14552,-0.233715 -0.14552,-0.383645 v -0.529167 l 4.23333,-4.23333287 4.23334,4.23333287 v 0.529167 c 0,0.14993 -0.0529,0.277812 -0.15875,0.383645"
       id="path6249-4-30"
       style="fill:#f7ff02;fill-opacity:1;stroke:#000000;stroke-width:1;stroke-miterlimit:4;stroke-dasharray:none;stroke-opacity:1"
       sodipodi:nodetypes="csscscccsc" />
    <path
       stroke="none"
       fill="#ffffff"
       d="m 113.93521,11.543221 v 0.529167 l -4.23334,4.233333 -4.23333,-4.233333 v -0.529167 c 0,-0.14993 0.0485,-0.277812 0.14552,-0.383645 0.10583,-0.09701 0.23371,-0.145521 0.38364,-0.145521 h 7.39511 c 0.14993,0 0.27781,0.04851 0.38365,0.145521 0.10583,0.105834 0.15875,0.233715 0.15875,0.383645"
       id="path6249-9-0-3"
       style="fill:#f7ff02;fill-opacity:1;stroke:#000000;stroke-width:1;stroke-miterlimit:4;stroke-dasharray:none;stroke-opacity:1"
       sodipodi:nodetypes="ccccscsscc" />
  </g>
</svg>
