<?xml version="1.0" encoding="UTF-8" standalone="no"?>
<!-- Uploaded to: SVG Repo, www.svgrepo.com, Generator: SVG Repo Mixer Tools -->

<svg
   height="1400"
   width="1400"
   version="1.1"
   id="Capa_1"
   viewBox="0 0 45.335499 45.3355"
   xml:space="preserve"
   sodipodi:docname="water-drop-svgrepo-comblue.svg"
   inkscape:version="1.1.2 (b8e25be833, 2022-02-05)"
   xmlns:inkscape="http://www.inkscape.org/namespaces/inkscape"
   xmlns:sodipodi="http://sodipodi.sourceforge.net/DTD/sodipodi-0.dtd"
   xmlns="http://www.w3.org/2000/svg"
   xmlns:svg="http://www.w3.org/2000/svg"><defs
   id="defs9" /><sodipodi:namedview
   id="namedview7"
   pagecolor="#ffffff"
   bordercolor="#666666"
   borderopacity="1.0"
   inkscape:pageshadow="2"
   inkscape:pageopacity="0.0"
   inkscape:pagecheckerboard="0"
   showgrid="false"
   inkscape:zoom="0.49875"
   inkscape:cx="471.17794"
   inkscape:cy="754.88722"
   inkscape:window-width="1920"
   inkscape:window-height="991"
   inkscape:window-x="-9"
   inkscape:window-y="-9"
   inkscape:window-maximized="1"
   inkscape:current-layer="Capa_1" />
<g
   id="g4"
   style="fill:#2ad4ff"
   transform="matrix(1.5,0,0,1.5,3.2382497,3.2382497)">
	<path
   style="fill:#2ad4ff"
   d="m 12.953,0 c 0,0 -9,10.906 -9,16.906 0,4.971 4.029,9 9,9 4.971,0 9,-4.029 9,-9 0,-6 -9,-16.906 -9,-16.906 z M 9.026,17.496 c 0,1.426 0.668,4.25 1.134,5.426 -3.042,-1.494 -3.846,-4.425 -3.846,-6.463 0,-3.173 3.684,-7.824 5.777,-12.149 -0.23,2.271 -3.065,8.867 -3.065,13.186 z"
   id="path2" />
</g>
</svg>
